<?xml version="1.0" encoding="iso-8859-1"?>
<!-- Generator: Adobe Illustrator 19.0.0, SVG Export Plug-In . SVG Version: 6.00 Build 0)  -->
<svg version="1.1" id="Capa_1" xmlns="http://www.w3.org/2000/svg" xmlns:xlink="http://www.w3.org/1999/xlink" x="0px" y="0px"
	 viewBox="0 0 512 512" style="enable-background:new 0 0 512 512;" xml:space="preserve">
<g>
	<g>
		<circle cx="256" cy="256" r="15"/>
	</g>
</g>
<g>
	<g>
		<path d="M497,241h-46.571c-3.249-42.509-20.195-81.244-46.412-111.803l32.296-32.296c5.858-5.857,5.858-15.355,0-21.213
			c-5.857-5.858-15.355-5.857-21.213,0l-32.296,32.296C352.244,81.766,313.51,64.82,271,61.571V15c0-8.284-6.716-15-15-15
			s-15,6.716-15,15v46.571c-42.51,3.249-81.244,20.195-111.803,46.413L96.9,75.688c-5.857-5.858-15.355-5.858-21.213,0
			c-5.858,5.858-5.858,15.355,0,21.213l32.296,32.296C81.766,159.756,64.82,198.491,61.571,241H15c-8.284,0-15,6.716-15,15
			s6.716,15,15,15h46.571c3.249,42.509,20.195,81.244,46.412,111.803l-32.296,32.296c-5.858,5.857-5.858,15.355,0,21.213
			c5.857,5.858,15.355,5.858,21.213,0l32.296-32.296c30.56,26.218,69.294,43.164,111.804,46.413V497c0,8.284,6.716,15,15,15
			s15-6.716,15-15v-46.571c42.51-3.249,81.244-20.195,111.803-46.413l32.296,32.296c5.857,5.858,15.355,5.859,21.213,0
			c5.858-5.858,5.858-15.355,0-21.213l-32.296-32.296c26.218-30.559,43.163-69.294,46.412-111.803H497c8.284,0,15-6.716,15-15
			S505.284,241,497,241z M256,421c-91.017,0-165-74.058-165-165c0-91.016,74.058-165,165-165c91.017,0,165,74.059,165,165
			C421,347.016,346.942,421,256,421z"/>
	</g>
</g>
<g>
	<g>
		<path d="M256,121c-74.393,0-135,60.517-135,135c0,74.393,60.517,135,135,135c74.393,0,135-60.517,135-135
			C391,181.607,330.483,121,256,121z M359.924,241h-30.433c-1.948-9.562-5.731-18.46-10.948-26.329l21.52-21.52
			C350.364,206.894,357.372,223.237,359.924,241z M271,152.077c17.763,2.552,34.106,9.56,47.85,19.861l-21.52,21.52
			c-7.869-5.217-16.768-9-26.33-10.948V152.077z M241,152.076v30.433c-9.562,1.949-18.461,5.731-26.33,10.948l-21.52-21.52
			C206.893,161.636,223.236,154.628,241,152.076z M171.938,193.151l21.52,21.52c-5.218,7.869-9,16.768-10.948,26.329h-30.433
			C154.628,223.237,161.636,206.894,171.938,193.151z M152.076,271h30.433c1.948,9.562,5.731,18.46,10.948,26.329l-21.52,21.52
			C161.636,305.106,154.628,288.763,152.076,271z M241,359.923c-17.763-2.552-34.106-9.56-47.85-19.861l21.52-21.52
			c7.869,5.217,16.768,9,26.33,10.948V359.923z M211,256c0-24.813,20.187-45,45-45s45,20.187,45,45s-20.187,45-45,45
			S211,280.813,211,256z M271,359.924v-30.433c9.562-1.949,18.461-5.731,26.33-10.948l21.52,21.52
			C305.107,350.364,288.764,357.372,271,359.924z M340.063,318.849l-21.52-21.52c5.218-7.869,9-16.868,10.948-26.429h30.433
			C357.372,288.663,350.364,305.106,340.063,318.849z"/>
	</g>
</g>
<g>
</g>
<g>
</g>
<g>
</g>
<g>
</g>
<g>
</g>
<g>
</g>
<g>
</g>
<g>
</g>
<g>
</g>
<g>
</g>
<g>
</g>
<g>
</g>
<g>
</g>
<g>
</g>
<g>
</g>
</svg>
