<?xml version="1.0" ?><svg data-name="Layer 1" id="Layer_1" viewBox="0 0 100 100" xmlns="http://www.w3.org/2000/svg"><title/><circle cx="26.02" cy="51.57" r="1.37"/><path d="M12.7,52.53H2.78a1.45,1.45,0,0,1,0-2.9H12.7A24.92,24.92,0,0,0,21,47.89l2.89-1.27a24.66,24.66,0,0,1,8.28-2c1.18,0,3.11-1.44,3.93-3.37l4-9.5a1.45,1.45,0,0,1,2.67,1.13l-4,9.5c-1.22,2.89-4.12,5.15-6.6,5.15A22.06,22.06,0,0,0,25,49.28l-2.89,1.27A27.51,27.51,0,0,1,12.7,52.53Z"/><path d="M31.62,61.48c-2.15,0-5.51-1.5-7.53-3l-3.92-2.83a1.45,1.45,0,0,1,1.7-2.35l3.92,2.83c2,1.43,4.64,2.44,5.85,2.41a1,1,0,0,0,.72-0.36A2.9,2.9,0,0,0,33,56.14l-0.12-3.91a1.45,1.45,0,0,1,2.9-.09l0.12,3.91a5.76,5.76,0,0,1-1.49,4.18,3.91,3.91,0,0,1-2.79,1.25h0Z"/><path d="M88.08,50.54l-0.57,0L58.65,47.95c-2.51-.22-6.59-0.41-9.1-0.41H42.27a1.45,1.45,0,0,1,0-2.9h7.29c2.58,0,6.78.19,9.36,0.42l28.85,2.57a4.69,4.69,0,0,0,4.55-3L96,33.52a1.45,1.45,0,0,1,2.75.91L95.07,45.55A7.58,7.58,0,0,1,88.08,50.54Z"/><path d="M97.38,69.7a1.45,1.45,0,0,1-1.38-1L92.06,57a3.56,3.56,0,0,0-4.19-2.24l-13.74,3.7a1.45,1.45,0,0,1-.75-2.8l13.74-3.7a6.45,6.45,0,0,1,7.69,4.12l3.94,11.73A1.45,1.45,0,0,1,97.38,69.7Z"/><path d="M72.25,63.35a1.45,1.45,0,0,1-1.09-.49l-1.73-2c-0.45-.51-2.36-1-4.21-0.48a42.11,42.11,0,0,1-8.95,1.07L44.7,61.41a1.45,1.45,0,0,1,0-2.9h0l11.57,0.07a37.93,37.93,0,0,0,8.19-1C66.8,57,70.1,57.25,71.61,59l1.73,2A1.45,1.45,0,0,1,72.25,63.35Z"/><path d="M47.06,65.33H44.34a9.79,9.79,0,0,1-5.75-2.18l-2.07-1.82a1.45,1.45,0,0,1,1.92-2.18L40.51,61a7.08,7.08,0,0,0,3.83,1.46h2.72A1.45,1.45,0,1,1,47.06,65.33Z"/><path d="M39.94,58.69a1.45,1.45,0,0,1-.63-2.76l0.51-.24H37.89a1.45,1.45,0,1,1,0-2.9h5.54c1.53,0,2.42.5,2.64,1.48s-0.36,1.82-1.74,2.48l-3.77,1.8A1.44,1.44,0,0,1,39.94,58.69Zm4-3h0Z"/><path d="M78,45.34H77.91L56.33,43.75c-3.63-.27-10.86-1.56-12.2-4.53l-1.34-3a1.45,1.45,0,1,1,2.64-1.2l1.34,3c0.41,0.74,4.24,2.42,9.77,2.83l21.58,1.59A1.45,1.45,0,0,1,78,45.34Z"/></svg>